<svg width="720" height="720" viewBox="0 0 720 720" fill="none" xmlns="http://www.w3.org/2000/svg">
<path d="M592.5 0H127.5C57.0837 0 0 58.5474 0 130.769V589.231C0 661.453 57.0837 720 127.5 720H592.5C662.916 720 720 661.453 720 589.231V130.769C720 58.5474 662.916 0 592.5 0Z" fill="#2E313A"/>
<path d="M295.98 579.814C295.952 576.445 295.925 561.85 295.897 548.189L295.87 533.996C234.257 542.374 219.342 499.386 219.177 498.928C210.625 477.246 198.932 471.047 198.429 470.791L197.293 470.131C193.054 467.238 181.81 459.538 185.006 449.411C187.89 440.282 199.07 439.339 204.151 439.504C232.298 441.472 246.545 466.771 247.131 467.842C261.497 492.464 283.426 489.918 297.573 484.727C298.891 478.427 300.933 472.64 303.607 467.531C258.228 459.483 206.816 435.347 206.816 347.548C206.816 323.439 214.324 302.133 229.166 284.104C225.852 273.061 222.079 250.537 233.25 222.162L234.843 218.115L238.982 216.796C242.791 215.542 263.594 211.083 306.363 239.073C324.016 234.55 342.704 232.215 361.978 232.124C381.343 232.215 400.049 234.55 417.739 239.073C460.472 211.074 481.229 215.588 485.047 216.796L489.176 218.124L490.77 222.153C501.986 250.519 498.214 273.052 494.899 284.104C509.714 302.078 517.222 323.393 517.222 347.548C517.222 435.365 465.755 459.428 420.276 467.375C425.431 477.127 428.223 489.369 428.223 502.883C428.223 518.293 428.159 568.845 428.086 579.814L409.773 579.686C409.847 568.735 409.911 518.266 409.911 502.874C409.911 480.515 401.276 470.626 397.55 467.403L381.709 453.696L402.531 451.379C450.189 446.087 498.9 429.597 498.9 347.538C498.9 326.204 491.786 307.608 477.749 292.271L473.812 287.977L476.028 282.602C477.548 278.931 484.214 260.243 475.634 234.157C468.694 234.569 452.121 237.837 424.506 256.562L420.99 258.933L416.915 257.807C399.857 253.064 380.858 250.519 361.969 250.427C343.18 250.519 324.208 253.064 307.178 257.807L303.103 258.933L299.596 256.562C271.954 237.847 255.344 234.55 248.376 234.138C239.815 260.243 246.49 278.931 248.01 282.602L250.226 287.977L246.298 292.271C232.234 307.663 225.11 326.259 225.11 347.538C225.11 429.56 273.73 446.151 321.287 451.563L341.907 453.907L326.268 467.549C322.862 470.525 316.837 477.731 314.786 492.518L314.1 497.545L309.467 499.624C297.371 505.044 256.003 519.42 231.199 476.87C231.062 476.642 226.218 468.218 217.446 462.614C223.361 468.465 230.567 477.933 236.381 492.711C236.986 494.45 248.807 525.875 303.039 514.127L314.081 511.728L314.191 548.152C314.219 561.767 314.246 576.317 314.274 579.686L295.98 579.814Z" fill="url(#paint0_linear_304_607)"/>
<path d="M360 598.062C228.727 598.062 121.938 491.273 121.938 360C121.938 228.727 228.727 121.938 360 121.938C491.273 121.938 598.062 228.727 598.062 360C598.062 491.273 491.273 598.062 360 598.062ZM360 140.25C238.835 140.25 140.25 238.835 140.25 360C140.25 481.165 238.835 579.75 360 579.75C481.165 579.75 579.75 481.165 579.75 360C579.75 238.835 481.165 140.25 360 140.25Z" fill="url(#paint1_linear_304_607)"/>
<defs>
<linearGradient id="paint0_linear_304_607" x1="350.834" y1="213.5" x2="350.834" y2="573.727" gradientUnits="userSpaceOnUse">
<stop stop-color="#6DC7FF"/>
<stop offset="1" stop-color="#E6ABFF"/>
</linearGradient>
<linearGradient id="paint1_linear_304_607" x1="360" y1="112.781" x2="360" y2="608.747" gradientUnits="userSpaceOnUse">
<stop stop-color="#1A6DFF"/>
<stop offset="1" stop-color="#C822FF"/>
</linearGradient>
</defs>
</svg>
